/* XPM */
static char *root[] = {
/* columns rows colors chars-per-pixel */
"64 64 78 1 ",
"  c gray6",
". c #151515",
"X c #171A14",
"o c #191B17",
"O c gray11",
"+ c #1C1C1D",
"@ c #1C1C1F",
"# c #1F211C",
"$ c #1F211F",
"% c #21231E",
"& c #1C1C20",
"* c #1C1C21",
"= c #1F2020",
"- c #242124",
"; c #242224",
": c gray14",
"> c #262924",
", c #292C26",
"< c #2B2E28",
"1 c #461C1C",
"2 c #6B1C1C",
"3 c #461C22",
"4 c #6B1C24",
"5 c #6F1F24",
"6 c #4B2024",
"7 c #4B2424",
"8 c #6F2424",
"9 c #4E4E5A",
"0 c #52525E",
"q c #565662",
"w c #595965",
"e c #5D5D69",
"r c #62626E",
"t c #656574",
"y c #6A6A76",
"u c #6D6D7A",
"i c #8C1715",
"p c #8E1C1C",
"a c #AF1C1C",
"s c #8E1C24",
"d c #911D24",
"f c #AF1C24",
"g c #B11C24",
"h c #B12124",
"j c #CF1C1D",
"k c #ED1C1F",
"l c #CF1C24",
"z c #ED1C20",
"x c #ED1C21",
"c c #ED1C22",
"v c #ED1C24",
"b c #ED1D24",
"n c #ED1F24",
"m c #CF2024",
"M c #747482",
"N c #797986",
"B c #7D7D8B",
"V c #82828E",
"C c #848492",
"Z c #898996",
"A c #8D8D9A",
"S c #91919D",
"D c #9595A2",
"F c #9999A6",
"G c #9C9CAB",
"H c #A1A1AD",
"J c #A5A5B2",
"K c #A9A9B7",
"L c #ADADBB",
"P c #B2B2BD",
"I c #B4B4C2",
"U c #B9B9C5",
"Y c #BCBCCA",
"T c #C1C1CE",
"R c #C2C2D0",
"E c #C9C9D6",
"W c #CCCCD9",
"Q c None",
/* pixels */
"QQQQQQQQQQQQQQQQQQQQQQQQQQQQQQQQQQQQQQQQQQQQQQQQQQQQQQQQQQQQQQQQ",
"QQQQQQQQQQQQQQQQQQQQQQQQQQQQQQQQQQQQQQQQQQQQQQQQQQQQQQQQQQQQQQQQ",
"QQQQQQQQQQQQQQQQQQQQQQQQQQQQQQQQQQQQQQQQQQQQQQQQQQQQQQQQQQQQQQQQ",
"QQQQQQQQQQQQQQQQQQQQQQQQQQQQQQQQQQQQQQQQQQQQQQQQQQQQQQQQQQQQQQQQ",
"QQQQQQQQQQQQQQQQQQQQQQQQQQQQQQQQQQQQQQQQQQQQQQQQQQQQQQQQQQQQQQQQ",
"QQQQQQQQQQQQQQQQQQQQQQQQQQQQQQQQQQQQQQQQQQQQQQQQQQQQQQQQQQQQQQQQ",
"QQQQQQQQQQQQQQQQQQQQQQQQQQQQQQQQQQQQQQQQQQQQQQQQQQQQQQQQQQQQQQQQ",
"QQQQQQQQQQQQQQQQQQQQQQQQQQQQQQQQQQQQQQQQQQQQQQQQQQQQQQQQQQQQQQQQ",
"QQQQQQQQQQQQQQQQQQQQQQQQQQQQQQQQQQQQQQQQQQQQQQQQQQQQQQQQQQQQQQQQ",
"QQQWWWWWWWWWWWWWWWWWWWWWWWWWWWWWWWWWWWWWWWWWWWWWWWWWWWWWWWWWIQQQ",
"QQQWWWEEWWWWWWWWEWWEWWWWWWWWWWEEWWWWWEWWWWWWWEWWWWWWWWEWWWWIGQQQ",
"QQQEWRRRRRTRRRRRRRRRWRRRRERREWRREYEERRRRRRRWRRRRRRRRRRRRWRRGGQQQ",
"QQQEEY...OOOOOOOOOOOOOOOOOOOOOOOOOOOOOOOOOOOOOOOOOOOOOO.O.YDFQQQ",
"QQQERYOOOOO#O#O%::O:OO::::OO::::OO::OOO:O:O::O:::OOOOOOOO.YFDQQQ",
"QQQRRYOO::::::,,<::::::::::::::::::::::::::::::::::::::OOOUDFQQQ",
"QQQRRIO##:>><<<<<<<<:<:<:<::<::<:<:<::<<::<<::<:<:,:::::#OIDSQQQ",
"QQQRYIOO::<::<:<:<::<<::<<::<:::::::::::::::::::::::::::O.IAAQQQ",
"QQQYYIO#::::::::::::::::::::::<::<:::::::::::::::::::::OOOIAAQQQ",
"QQQUULO#:::<<::<::::::::::::::::::::<<<:<:<:<<:<:<<,::::OOLADQQQ",
"QQQUULO:::<<::::::<<<:<:<:<<:<<:::<<::::<::<::::<::::::::OLAAQQQ",
"QQQUULOO<:::<:::<<::::<::<::::::::::::::::::::::::::::O:O.IZZQQQ",
"QQQIIKOO::::::::::::::::::::::::::::::::::::::::::::::::OOJCZQQQ",
"QQQIIJO%:::::::::::::::::::::::::::::::<::::::::::::::::OOJCZQQQ",
"QQQPIJO%:::::::gv7::6vm:::::::::::::::::::::::::::::::::OOJCCQQQ",
"QQQLLJ.#,:::::;lv7::5vh:::::::OO::::OO:OO:::O::O:::O:OO:O.JBBQQQ",
"QQQLLH.O::::OO;vn:OO8cp;::O::O::::O::::::OO:O::OOO:::::OO.HBBQQQ",
"QQQLLGOO:OO:::6vj:::dv8OO:O::O:::::::O::::::::::::::::OOOOGBBQQQ",
"QQQKKFoO::O:dvvvvvvvvvvv7:::::::::::::::::::::::::::O:::OOGNBQQQ",
"QQQKJF.O::::dvvvvvvvvvvv7:::::O:O:OOOO:OOO:::O:OOOO::OOO..FNBQQQ",
"QQQJJF.o#O:OO:svpOO*lcOO:::O:O##:O:::OO::OOOO:OOO::OOOOOO.DNNQQQ",
"QQQJHD.O#OO:##gc8::*cm:OOOO:OO:#O::O:O::O::O::::O:O:O::#O.DNNQQQ",
"QQQHHDoO#::#:=lv7O:3vmO::O:::::::::O:::O::O::OO:::O:::OOO.SMMQQQ",
"QQQHHA.o::::::lv:O:5va::O::OO:OO:OOO:OOOOO:OOO:OOO:O:OOO..DMMQQQ",
"QQQGGA..OO:3vvvvvvvvvccp:OOO:O:OOOOOOOOOOOOO:OOOOOOOOOO...BMMQQQ",
"QQQGFAoOOOO3vvvvvvvvvvcpOO:OOOOO:O:O:O:O:OO:OO:O:O:O:OOOO.AMMQQQ",
"QQQFGC.OOO:O:4vaO:Ofv2O:O:O:OO:OO:OO:OO:O:OO:OO:OO:OO:OOO.BMMQQQ",
"QQQFFC..OOOOO4cpOO*lc1OOOOOOOOOOOOOOOOOOOOOOOOOOOOOOOOO...CyMQQQ",
"QQQDFC .XOOOOsciOO*lkOOOOOOO.OOOOOOOOOOOOO.OOOOOOOOOOOO...CytQQQ",
"QQQDDB.oo:OO*fv8OO*vkOOOOOO::OOOOOOOOOOOO::OOOOOOOOOOOOO..CtyQQQ",
"QQQDDB..OOOOOfc1OO3vjOO:OOOOOOOOOOOO:OOOOOOOOOOOOO:OOOOO..BttQQQ",
"QQQSSB...O.OO.O.OOO.OO.OOO.O.OOO.OO.OOOO.O.OOO.OO.OOO.O...BrrQQQ",
"QQQAAN ...O.OO..O.OO..O..OO..O.OO..O...OO..O.OO..O...O... NrrQQQ",
"QQQAZN....O.OOOOOO.OOOO.OOOOOOO.OOOO.O.OOOOOO.OOOO.OOO.O. NrtQQQ",
"QQQZZM...OOOO.O.OOO.O.OOOO.O.OOO.O.OOOOO.O.OOO.O.OOOO.O...MreQQQ",
"QQQZZM ....O...O..OO...O....O..OO...O.O...O..OO...O..O... MeeQQQ",
"QQQZCM  ..O...O......O.....O......O......O......O......   MwwQQQ",
"QQQCCu. ..O.O...O...O.O..O...O...O.O...O...O...O.O....... MqwQQQ",
"QQQBCu .......O...O........O...O.........O...O......... . uqqQQQ",
"QQQVVy      . . . .  .. . .  . . . . . . . . . ..  .      uqqQQQ",
"QQQBBt                       .                            yq9QQQ",
"QQQBBttttttttttttttttttttttttttttttttttttttttttttttttttyttt9qQQQ",
"QQQNt99999999999099999999999999999099999990999990999999999999QQQ",
"QQQr999999999999999999999999999999999999999999999999999999999QQQ",
"QQQQQQQQQQQQQQQQQQQQQQQQQQQQQQQQQQQQQQQQQQQQQQQQQQQQQQQQQQQQQQQQ",
"QQQQQQQQQQQQQQQQQQQQQQQQQQQQQQQQQQQQQQQQQQQQQQQQQQQQQQQQQQQQQQQQ",
"QQQQQQQQQQQQQQQQQQQQQQQQQQQQQQQQQQQQQQQQQQQQQQQQQQQQQQQQQQQQQQQQ",
"QQQQQQQQQQQQQQQQQQQQQQQQQQQQQQQQQQQQQQQQQQQQQQQQQQQQQQQQQQQQQQQQ",
"QQQQQQQQQQQQQQQQQQQQQQQQQQQQQQQQQQQQQQQQQQQQQQQQQQQQQQQQQQQQQQQQ",
"QQQQQQQQQQQQQQQQQQQQQQQQQQQQQQQQQQQQQQQQQQQQQQQQQQQQQQQQQQQQQQQQ",
"QQQQQQQQQQQQQQQQQQQQQQQQQQQQQQQQQQQQQQQQQQQQQQQQQQQQQQQQQQQQQQQQ",
"QQQQQQQQQQQQQQQQQQQQQQQQQQQQQQQQQQQQQQQQQQQQQQQQQQQQQQQQQQQQQQQQ",
"QQQQQQQQQQQQQQQQQQQQQQQQQQQQQQQQQQQQQQQQQQQQQQQQQQQQQQQQQQQQQQQQ",
"QQQQQQQQQQQQQQQQQQQQQQQQQQQQQQQQQQQQQQQQQQQQQQQQQQQQQQQQQQQQQQQQ",
"QQQQQQQQQQQQQQQQQQQQQQQQQQQQQQQQQQQQQQQQQQQQQQQQQQQQQQQQQQQQQQQQ"
};
